<?xml version="1.0" encoding="UTF-8"?>
<svg version="1.1" xmlns="http://www.w3.org/2000/svg" width="512" height="512">
<path d="M0 0 C168.96 0 337.92 0 512 0 C512 168.96 512 337.92 512 512 C343.04 512 174.08 512 0 512 C0 343.04 0 174.08 0 0 Z " fill="#0B60B4" transform="translate(0,0)"/>
<path d="M0 0 C0.495 7.92 0.495 7.92 1 16 C2.32 16 3.64 16 5 16 C5.33 11.05 5.66 6.1 6 1 C26.32656408 0.57554739 41.47440229 5.91761779 60 14 C59.33333333 16.66666667 58.66666667 19.33333333 58 22 C61.72614153 20.88145414 61.72614153 20.88145414 64 18 C69.49982353 18.38370862 71.25561708 20.12188912 75 24 C76.75283829 25.45938853 78.52416 26.89683867 80.3125 28.3125 C87.69703981 34.33465145 93.88151425 40.54509169 99.5625 48.1875 C100.0169751 48.78199951 100.4714502 49.37649902 100.93969727 49.98901367 C102.91943427 52.74334643 104.01983029 54.41857602 103.90234375 57.86328125 C103 60 103 60 101 61 C101 62.65 101 64.3 101 66 C101.7425 65.649375 102.485 65.29875 103.25 64.9375 C106 64 106 64 108.1875 64.0625 C110 65 110 65 111.1875 67.25 C111.94831494 69.82506595 112.54647595 72.35444307 113 75 C113.66 75 114.32 75 115 75 C116.60725635 78.21451269 116.05748185 81.43612536 116 85 C116.66 85 117.32 85 118 85 C120.93477755 96.07463226 122.13021053 105.54147331 122 117 C117.05 117 112.1 117 107 117 C107 118.98 107 120.96 107 123 C112.28 123 117.56 123 123 123 C122.09657769 135.64791229 119.98058262 147.68025852 117 160 C116.34 160 115.68 160 115 160 C114.731875 161.010625 114.46375 162.02125 114.1875 163.0625 C112.75443555 168.0731438 110.90537578 172.64193633 108 177 C105.69 176.67 103.38 176.34 101 176 C101 177.32 101 178.64 101 180 C101.99 180.66 102.98 181.32 104 182 C101.25091812 197.17214809 81.07294448 211.93089898 69.35546875 220.59375 C67 222 67 222 64 222 C63.34 220.68 62.68 219.36 62 218 C60.68 218.33 59.36 218.66 58 219 C58.33 221.31 58.66 223.62 59 226 C42.40078986 235.51418142 24.91102609 238.89875551 6 240 C5.505 232.575 5.505 232.575 5 225 C3.35 224.67 1.7 224.34 0 224 C0 229.28 0 234.56 0 240 C-14.50414908 240.42041012 -29.90993818 237.33619251 -42.99609375 230.9296875 C-45.12537201 229.94183521 -47.26229461 229.26498952 -49.5 228.5625 C-53 227 -53 227 -54.0625 224.5625 C-54.00448161 222.18374615 -53.75065658 220.25196974 -53 218 C-54.32 217.67 -55.64 217.34 -57 217 C-57.66 218.32 -58.32 219.64 -59 221 C-74.67127221 216.52249365 -87.98555247 199.95952522 -97.1015625 187.10546875 C-98.27943964 184.34513927 -97.94421627 182.80880496 -97 180 C-96.34 179.67 -95.68 179.34 -95 179 C-95 178.01 -95 177.02 -95 176 C-97.64 176.33 -100.28 176.66 -103 177 C-105.18480314 173.57029478 -106.7424988 170.27993266 -108.0625 166.4375 C-109.35688371 162.6613803 -109.35688371 162.6613803 -111.02734375 159.046875 C-112.78914988 155.33929906 -113.39487017 151.29225491 -114.26953125 147.30078125 C-114.69138787 145.39453074 -115.13500672 143.49227533 -115.63671875 141.60546875 C-117.34994522 135.05632645 -117.14213904 128.75160438 -117 122 C-112.05 122 -107.1 122 -102 122 C-102 120.68 -102 119.36 -102 118 C-106.95 118 -111.9 118 -117 118 C-117.46884516 104.24720861 -115.80118851 91.58483637 -110 79 C-109.505 77.783125 -109.01 76.56625 -108.5 75.3125 C-106.87012863 71.71320073 -105.01131123 68.39842242 -103 65 C-100.36 65.33 -97.72 65.66 -95 66 C-94.67 64.35 -94.34 62.7 -94 61 C-95.32 60.67 -96.64 60.34 -98 60 C-98.734375 58.37890625 -98.734375 58.37890625 -99 56 C-94.09731432 46.59458457 -86.62316318 39.20735428 -79 32 C-78.19304687 31.17113281 -77.38609375 30.34226563 -76.5546875 29.48828125 C-73.8057772 26.81082581 -70.93591023 24.50044344 -67.875 22.1875 C-66.84117187 21.39730469 -65.80734375 20.60710937 -64.7421875 19.79296875 C-62 18 -62 18 -59 18 C-58.505 20.475 -58.505 20.475 -58 23 C-56.02 23 -54.04 23 -52 23 C-52.495 19.04 -52.495 19.04 -53 15 C-51.68 14.67 -50.36 14.34 -49 14 C-49 13.01 -49 12.02 -49 11 C-32.85620936 4.55965799 -17.51138722 0 0 0 Z " fill="#0561B4" transform="translate(252,149)"/>
<path d="M0 0 C1.51815699 0.00015911 3.0363194 0.00585313 4.55444336 0.01586914 C5.35208603 0.01728409 6.1497287 0.01869904 6.97154236 0.02015686 C9.52916146 0.02577223 12.08669429 0.03832727 14.64428711 0.05102539 C16.37410356 0.05603841 18.10392137 0.06060166 19.83374023 0.06469727 C24.08312264 0.07574664 28.33244023 0.09302153 32.58178711 0.11352539 C32.58178711 4.07352539 32.58178711 8.03352539 32.58178711 12.11352539 C28.62178711 12.11352539 24.66178711 12.11352539 20.58178711 12.11352539 C20.58178711 18.05352539 20.58178711 23.99352539 20.58178711 30.11352539 C23.32491211 30.17540039 26.06803711 30.23727539 28.89428711 30.30102539 C39.24470908 30.69638564 48.7116733 33.1182277 58.58178711 36.11352539 C58.58178711 36.77352539 58.58178711 37.43352539 58.58178711 38.11352539 C59.71616211 38.17540039 60.85053711 38.23727539 62.01928711 38.30102539 C67.22898359 38.91612372 71.20024697 41.36492035 75.58178711 44.11352539 C75.58178711 44.77352539 75.58178711 45.43352539 75.58178711 46.11352539 C78.55178711 47.10352539 81.52178711 48.09352539 84.58178711 49.11352539 C84.58178711 49.77352539 84.58178711 50.43352539 84.58178711 51.11352539 C85.27014648 51.34040039 85.95850586 51.56727539 86.66772461 51.80102539 C90.26438473 53.42096882 93.15618357 55.65802783 96.20678711 58.11352539 C96.81852783 58.60191895 97.43026855 59.0903125 98.06054688 59.59350586 C106.86095195 66.68466093 114.97931739 73.86701108 121.58178711 83.11352539 C122.26241211 84.0480957 122.94303711 84.98266602 123.64428711 85.94555664 C124.99800897 87.80443574 126.3462732 89.66731049 127.68725586 91.53540039 C129.54545905 94.13182848 129.54545905 94.13182848 131.63256836 96.50415039 C133.91280513 99.55665172 135.17198902 102.57942665 136.58178711 106.11352539 C137.06518555 107.17571289 137.54858398 108.23790039 138.04663086 109.33227539 C152.69276583 141.96557347 153.51654762 180.20271434 140.92163086 213.64086914 C139.5452737 217.16324624 138.09017192 220.64579536 136.58178711 224.11352539 C135.92178711 224.11352539 135.26178711 224.11352539 134.58178711 224.11352539 C134.27241211 225.22727539 133.96303711 226.34102539 133.64428711 227.48852539 C132.58178711 231.11352539 132.58178711 231.11352539 131.58178711 233.11352539 C130.92178711 233.11352539 130.26178711 233.11352539 129.58178711 233.11352539 C129.34202148 233.80446289 129.10225586 234.49540039 128.85522461 235.20727539 C127.35201063 238.63792325 125.36433015 241.57463307 123.20678711 244.61352539 C122.82006836 245.16911133 122.43334961 245.72469727 122.03491211 246.29711914 C115.96009098 254.96087411 108.89144044 262.53436961 100.58178711 269.11352539 C99.92178711 269.11352539 99.26178711 269.11352539 98.58178711 269.11352539 C99.02709806 273.90061813 100.91526724 275.90607221 104.33178711 279.17602539 C105.19288086 280.01262695 106.05397461 280.84922852 106.94116211 281.71118164 C109.41326877 283.96021359 111.96866082 286.03246423 114.58178711 288.11352539 C118.18994407 291.40078336 120.95270481 294.24761074 121.20678711 299.30102539 C120.58178711 303.11352539 120.58178711 303.11352539 119.01928711 305.61352539 C115.59042597 307.72359378 113.5395836 307.73844063 109.58178711 307.11352539 C107.81212487 305.49679692 106.21180974 303.86318759 104.58178711 302.11352539 C103.29138475 300.80371337 101.99677753 299.49803633 100.69897461 298.19555664 C100.00674805 297.49881836 99.31452148 296.80208008 98.60131836 296.08422852 C97.89362305 295.37202148 97.18592773 294.65981445 96.45678711 293.92602539 C95.74135742 293.2022168 95.02592773 292.4784082 94.28881836 291.73266602 C93.59916992 291.03979492 92.90952148 290.34692383 92.19897461 289.63305664 C91.57619629 289.0050415 90.95341797 288.37702637 90.31176758 287.72998047 C88.47104013 285.92214733 88.47104013 285.92214733 85.58178711 284.11352539 C85.58178711 283.45352539 85.58178711 282.79352539 85.58178711 282.11352539 C81.05677901 283.26695883 77.52424804 284.64948731 73.58178711 287.11352539 C69.01932769 289.21927589 64.4185489 290.87896255 59.64038086 292.42602539 C58.07808333 292.9477794 56.54080025 293.54515409 55.01928711 294.17602539 C25.6017408 305.49046628 -9.81534068 301.74819687 -38.41821289 290.11352539 C-42.24566509 288.34009682 -45.93917108 286.38592172 -49.60571289 284.30102539 C-52.95299636 282.88772792 -54.00640183 282.99616833 -57.41821289 284.11352539 C-59.96707744 286.12830148 -59.96707744 286.12830148 -62.39477539 288.73461914 C-63.31258789 289.66983398 -64.23040039 290.60504883 -65.17602539 291.56860352 C-66.13223469 292.56228234 -67.08795904 293.55642803 -68.04321289 294.55102539 C-69.92724666 296.49116178 -71.8170657 298.42548204 -73.70727539 300.35961914 C-74.53952637 301.22256592 -75.37177734 302.0855127 -76.22924805 302.97460938 C-79.13046621 305.80949364 -80.78383462 307.03278634 -84.85571289 307.55102539 C-88.41821289 307.11352539 -88.41821289 307.11352539 -90.85571289 304.98852539 C-92.69343164 301.60712288 -92.81986074 299.91483535 -92.41821289 296.11352539 C-90.90649414 293.79711914 -90.90649414 293.79711914 -88.73071289 291.55102539 C-87.92375977 290.70668945 -87.11680664 289.86235352 -86.28540039 288.99243164 C-85.33129811 288.0311787 -84.37542936 287.07167726 -83.41821289 286.11352539 C-82.85650391 285.5448877 -82.29479492 284.97625 -81.71606445 284.39038086 C-77.97622923 280.60463931 -74.20731723 276.84992194 -70.41821289 273.11352539 C-71.91356778 269.46093722 -73.97759897 267.5653696 -76.98071289 265.05102539 C-85.7135314 257.37368422 -93.10385742 247.86894651 -99.41821289 238.11352539 C-99.41821289 237.45352539 -99.41821289 236.79352539 -99.41821289 236.11352539 C-100.07821289 236.11352539 -100.73821289 236.11352539 -101.41821289 236.11352539 C-105.09686203 230.17433232 -107.2148417 225.00556037 -108.41821289 218.11352539 C-109.07821289 218.11352539 -109.73821289 218.11352539 -110.41821289 218.11352539 C-121.79231833 182.60503374 -125.53405251 147.37214088 -110.41821289 112.11352539 C-108.71475974 108.82984761 -106.902501 105.69842693 -104.92993164 102.57055664 C-103.26559876 100.02724465 -103.26559876 100.02724465 -102.04321289 96.61352539 C-99.36632276 90.84791589 -95.37844026 86.05163971 -91.41821289 81.11352539 C-90.95705078 80.53586426 -90.49588867 79.95820313 -90.02075195 79.36303711 C-81.25243977 68.48449637 -71.75290016 58.96612943 -59.41821289 52.11352539 C-58.75821289 52.11352539 -58.09821289 52.11352539 -57.41821289 52.11352539 C-57.41821289 51.45352539 -57.41821289 50.79352539 -57.41821289 50.11352539 C-52.76922457 47.76278224 -48.11260163 45.42868181 -43.44360352 43.11791992 C-41.77049186 42.28822111 -40.10158802 41.45004296 -38.43383789 40.60961914 C-30.20519877 36.63244356 -20.6166797 33.11352539 -11.41821289 33.11352539 C-11.41821289 32.45352539 -11.41821289 31.79352539 -11.41821289 31.11352539 C-9.37749774 30.77441545 -7.33558668 30.44249835 -5.29321289 30.11352539 C-4.15625977 29.92790039 -3.01930664 29.74227539 -1.84790039 29.55102539 C1.58178711 29.11352539 1.58178711 29.11352539 7.58178711 29.11352539 C7.58178711 23.83352539 7.58178711 18.55352539 7.58178711 13.11352539 C4.89022461 13.14446289 4.89022461 13.14446289 2.14428711 13.17602539 C0.29012589 13.19733759 -1.56533788 13.18579041 -3.41821289 13.11352539 C-4.41821289 12.11352539 -4.41821289 12.11352539 -4.55102539 9.64477539 C-4.54844727 8.64446289 -4.54586914 7.64415039 -4.54321289 6.61352539 C-4.54579102 5.61321289 -4.54836914 4.61290039 -4.55102539 3.58227539 C-4.3443209 -0.25999628 -3.97775332 0.1321088 0 0 Z M-37.41821289 56.11352539 C-37.41821289 57.10352539 -37.41821289 58.09352539 -37.41821289 59.11352539 C-38.73821289 59.44352539 -40.05821289 59.77352539 -41.41821289 60.11352539 C-40.92321289 64.07352539 -40.92321289 64.07352539 -40.41821289 68.11352539 C-42.39821289 68.11352539 -44.37821289 68.11352539 -46.41821289 68.11352539 C-46.74821289 66.46352539 -47.07821289 64.81352539 -47.41821289 63.11352539 C-51.51838941 63.70347885 -54.1135733 65.89410255 -57.35571289 68.36352539 C-58.37536133 69.13180664 -59.39500977 69.90008789 -60.44555664 70.69165039 C-63.30633755 73.0223786 -65.84595354 75.47163482 -68.41821289 78.11352539 C-69.2805957 78.92950195 -70.14297852 79.74547852 -71.03149414 80.58618164 C-77.40606899 86.70245245 -83.53852919 93.05479967 -87.41821289 101.11352539 C-87.23821653 103.39520261 -87.23821653 103.39520261 -86.41821289 105.11352539 C-85.09821289 105.44352539 -83.77821289 105.77352539 -82.41821289 106.11352539 C-82.74821289 107.76352539 -83.07821289 109.41352539 -83.41821289 111.11352539 C-86.05821289 110.78352539 -88.69821289 110.45352539 -91.41821289 110.11352539 C-95.78071333 116.55548437 -98.49767652 122.72736229 -100.55883789 130.23071289 C-101.41821289 133.11352539 -101.41821289 133.11352539 -102.45727539 135.12524414 C-106.43849437 143.36280699 -105.61343107 154.23109806 -105.41821289 163.11352539 C-100.46821289 163.11352539 -95.51821289 163.11352539 -90.41821289 163.11352539 C-90.41821289 164.43352539 -90.41821289 165.75352539 -90.41821289 167.11352539 C-95.36821289 167.11352539 -100.31821289 167.11352539 -105.41821289 167.11352539 C-105.73584464 176.64247783 -104.75676684 184.88803733 -102.41821289 194.11352539 C-102.05856445 195.62172852 -102.05856445 195.62172852 -101.69165039 197.16040039 C-100.42511123 202.198721 -98.85683553 206.68471082 -96.39868164 211.26196289 C-94.87837394 214.13298221 -93.67573699 217.1194204 -92.41821289 220.11352539 C-92.08821289 220.77352539 -91.75821289 221.43352539 -91.41821289 222.11352539 C-88.77821289 221.78352539 -86.13821289 221.45352539 -83.41821289 221.11352539 C-83.41821289 222.10352539 -83.41821289 223.09352539 -83.41821289 224.11352539 C-83.93383789 224.56727539 -84.44946289 225.02102539 -84.98071289 225.48852539 C-86.6774707 227.02573892 -86.6774707 227.02573892 -86.31274414 229.30102539 C-85.12343613 233.04033443 -82.98238863 235.73697376 -80.54321289 238.73852539 C-80.05361084 239.34954102 -79.56400879 239.96055664 -79.05957031 240.59008789 C-71.12727585 250.32327553 -61.5312842 261.70877219 -49.41821289 266.11352539 C-47.06360612 265.43928372 -47.06360612 265.43928372 -45.41821289 264.11352539 C-45.41821289 263.45352539 -45.41821289 262.79352539 -45.41821289 262.11352539 C-44.09821289 262.44352539 -42.77821289 262.77352539 -41.41821289 263.11352539 C-41.91321289 267.07352539 -41.91321289 267.07352539 -42.41821289 271.11352539 C-38.30809503 273.81079024 -34.0193649 275.47250019 -29.41821289 277.11352539 C-28.58032227 277.43450195 -27.74243164 277.75547852 -26.87915039 278.08618164 C-14.1040039 282.92748355 -2.06227693 285.30302628 11.58178711 285.11352539 C11.58178711 279.83352539 11.58178711 274.55352539 11.58178711 269.11352539 C13.23178711 269.44352539 14.88178711 269.77352539 16.58178711 270.11352539 C17.07678711 277.53852539 17.07678711 277.53852539 17.58178711 285.11352539 C36.4928132 284.0122809 53.98257697 280.62770681 70.58178711 271.11352539 C70.25178711 268.80352539 69.92178711 266.49352539 69.58178711 264.11352539 C70.90178711 263.78352539 72.22178711 263.45352539 73.58178711 263.11352539 C74.24178711 264.43352539 74.90178711 265.75352539 75.58178711 267.11352539 C89.23074489 265.09387054 104.63587972 245.29869332 112.58178711 234.92602539 C115.07900665 231.72014724 115.07900665 231.72014724 115.39428711 227.87524414 C114.71491469 225.91970808 114.71491469 225.91970808 112.58178711 225.11352539 C112.58178711 223.79352539 112.58178711 222.47352539 112.58178711 221.11352539 C114.89178711 221.44352539 117.20178711 221.77352539 119.58178711 222.11352539 C123.20439904 217.24173693 126.58178711 211.3632808 126.58178711 205.11352539 C127.24178711 205.11352539 127.90178711 205.11352539 128.58178711 205.11352539 C129.40596963 201.19922603 130.21390263 197.28173199 131.01928711 193.36352539 C131.24938477 192.27168945 131.47948242 191.17985352 131.71655273 190.05493164 C133.21191538 182.72982187 134.09150549 175.57482275 134.58178711 168.11352539 C129.30178711 168.11352539 124.02178711 168.11352539 118.58178711 168.11352539 C118.58178711 166.13352539 118.58178711 164.15352539 118.58178711 162.11352539 C123.53178711 162.11352539 128.48178711 162.11352539 133.58178711 162.11352539 C133.99634289 151.05870453 132.386723 140.78862121 129.58178711 130.11352539 C128.92178711 130.11352539 128.26178711 130.11352539 127.58178711 130.11352539 C127.61433919 128.09529622 127.64689128 126.07706706 127.67944336 124.05883789 C127.70827952 122.03167135 127.70827952 122.03167135 126.58178711 120.11352539 C125.92178711 120.11352539 125.26178711 120.11352539 124.58178711 120.11352539 C124.47866211 119.41227539 124.37553711 118.71102539 124.26928711 117.98852539 C123.48819708 114.72214892 122.16119968 112.06634019 120.58178711 109.11352539 C117.81902534 109.63621005 115.25569951 110.22222126 112.58178711 111.11352539 C112.39428711 108.73852539 112.39428711 108.73852539 112.58178711 106.11352539 C113.57178711 105.45352539 114.56178711 104.79352539 115.58178711 104.11352539 C115.18408643 98.65342645 112.97113953 95.3993287 109.58178711 91.30102539 C109.08485352 90.68791504 108.58791992 90.07480469 108.07592773 89.44311523 C101.45112938 81.37841993 94.5050339 74.74460547 85.86694336 68.84008789 C83.58178711 67.11352539 83.58178711 67.11352539 81.58178711 64.11352539 C78.51622113 63.38009111 78.51622113 63.38009111 75.58178711 63.11352539 C74.59178711 64.59852539 74.59178711 64.59852539 73.58178711 66.11352539 C71.45678711 66.80102539 71.45678711 66.80102539 69.58178711 67.11352539 C69.91178711 66.35040039 70.24178711 65.58727539 70.58178711 64.80102539 C71.75615397 62.12283404 71.75615397 62.12283404 71.58178711 59.11352539 C64.16537521 55.8456689 56.71331827 52.6991582 49.14428711 49.80102539 C48.17072266 49.41986572 48.17072266 49.41986572 47.17749023 49.03100586 C40.00464058 46.32555411 33.19851631 45.96687374 25.64428711 46.05102539 C24.86504883 46.05553711 24.08581055 46.06004883 23.28295898 46.06469727 C21.38253443 46.07635631 19.48215005 46.09428662 17.58178711 46.11352539 C17.25178711 51.06352539 16.92178711 56.01352539 16.58178711 61.11352539 C15.26178711 61.11352539 13.94178711 61.11352539 12.58178711 61.11352539 C12.25178711 55.83352539 11.92178711 50.55352539 11.58178711 45.11352539 C-5.10238318 45.11352539 -22.29987996 49.00586983 -37.41821289 56.11352539 Z " fill="#F4F8FB" transform="translate(240.418212890625,103.886474609375)"/>
<path d="M0 0 C1.010625 0.391875 2.02125 0.78375 3.0625 1.1875 C4.0215625 1.5896875 4.0215625 1.5896875 5 2 C5 2.66 5 3.32 5 4 C6.27875 4.309375 7.5575 4.61875 8.875 4.9375 C11.10101675 5.47605244 12.94739999 5.9737 15 7 C16.0064275 8.66279327 17.00585407 10.32983484 18 12 C19.58245275 13.75149165 19.58245275 13.75149165 21 15 C19.58665271 18.38324586 18.0205579 19.99605417 15.0625 22.125 C11.39501824 24.87121034 7.99050308 27.76541036 4.625 30.875 C1.04837753 34.17344073 -2.58024275 37.33036918 -6.375 40.375 C-13.79604121 46.36727753 -20.95474064 52.79489756 -27.5703125 59.671875 C-29.93368937 61.9364612 -32.18818898 63.35903774 -35 65 C-36.57411571 66.33772973 -38.11464788 67.71567478 -39.625 69.125 C-44.09491066 73.22742922 -48.71470864 77.07672476 -53.45703125 80.859375 C-56.10394985 83.01253081 -56.10394985 83.01253081 -58.66015625 85.7578125 C-61 88 -61 88 -63.625 88.125 C-66.72093258 86.65850562 -67.57808436 85.06834427 -69 82 C-69 81.34 -69 80.68 -69 80 C-69.66 80 -70.32 80 -71 80 C-78.176836 66.84246734 -78.97818888 51.26254622 -76.0625 36.625 C-72.47107003 24.52755168 -63.36252092 12.70481633 -52.9375 5.875 C-52.28064209 5.44195557 -51.62378418 5.00891113 -50.94702148 4.56274414 C-36.05319122 -4.92727357 -16.40293085 -7.08144151 0 0 Z " fill="#FAFCFD" transform="translate(184,107)"/>
<path d="M0 0 C0.95132813 -0.00773437 1.90265625 -0.01546875 2.8828125 -0.0234375 C11.46468059 0.00007447 18.75621706 1.14911241 26.33984375 5.25 C28.49958522 6.42542147 28.49958522 6.42542147 31.9375 7.6875 C35.69257872 9.45876355 37.48280028 11.15337174 40.25 14.25 C40.96542969 15.00925781 41.68085938 15.76851562 42.41796875 16.55078125 C49.29785862 23.94694344 53.44730078 30.53176484 56.25 40.25 C56.45753906 40.90226562 56.66507812 41.55453125 56.87890625 42.2265625 C59.86284294 53.03550798 59.52432214 65.89494578 55.25 76.25 C54.59 76.25 53.93 76.25 53.25 76.25 C53.14816406 76.96542969 53.04632813 77.68085938 52.94140625 78.41796875 C52.16567222 81.59541039 50.92015917 83.79761835 49.1875 86.5625 C48.36572266 87.88701172 48.36572266 87.88701172 47.52734375 89.23828125 C47.10582031 89.90214844 46.68429687 90.56601563 46.25 91.25 C41.04419412 90.84804512 38.19935489 88.11303489 34.4375 84.8125 C33.84001953 84.30912109 33.24253906 83.80574219 32.62695312 83.28710938 C31.12250907 81.9924278 29.68044974 80.62599631 28.25 79.25 C28.25 78.59 28.25 77.93 28.25 77.25 C26.93 77.25 25.61 77.25 24.25 77.25 C22.78515625 75.88671875 22.78515625 75.88671875 21.3125 73.9375 C16.75204433 68.3941875 11.29414992 64.07384021 5.77880859 59.52783203 C3.06390002 57.25861589 0.44909929 54.87712555 -2.1640625 52.4921875 C-3.84640106 51.03118541 -3.84640106 51.03118541 -6.75 50.25 C-8.45430041 48.62183672 -10.11408027 46.94685657 -11.75 45.25 C-19.07245682 38.18357314 -26.57438549 31.38654526 -34.54296875 25.0546875 C-38.33868424 21.9509343 -38.33868424 21.9509343 -39.75 20.25 C-39.75 17.25 -39.75 17.25 -38.24609375 15.56640625 C-31.29810231 9.64677028 -24.14990311 5.78211473 -15.75 2.25 C-15.05648438 1.88648437 -14.36296875 1.52296875 -13.6484375 1.1484375 C-9.1382361 -0.24960336 -4.69254125 -0.03754033 0 0 Z " fill="#FBFCFD" transform="translate(344.75,103.75)"/>
<path d="M0 0 C1.640625 1.390625 1.640625 1.390625 3.25 3.25 C3.79140625 3.85328125 4.3328125 4.4565625 4.890625 5.078125 C6 7 6 7 5.84448242 8.82226562 C4.68024196 11.82458564 2.87508423 13.49647695 0.59765625 15.765625 C-0.29244141 16.65507812 -1.18253906 17.54453125 -2.09960938 18.4609375 C-3.03611328 19.38132813 -3.97261719 20.30171875 -4.9375 21.25 C-5.88013349 22.19473794 -6.82219743 23.14004452 -7.76367188 24.0859375 C-14.73316782 31 -14.73316782 31 -17 31 C-17.23443817 31.55975525 -17.46887634 32.1195105 -17.7104187 32.69622803 C-19.31920939 35.57025148 -21.29693293 37.536216 -23.63330078 39.86035156 C-24.10176422 40.32910706 -24.57022766 40.79786255 -25.05288696 41.28082275 C-26.59566695 42.82221432 -28.14539964 44.35640873 -29.6953125 45.890625 C-30.76906192 46.96064255 -31.84236933 48.03110381 -32.91525269 49.10198975 C-35.73520452 51.91431879 -38.56111154 54.72058889 -41.38830566 57.52563477 C-44.2742137 60.39105523 -47.15444257 63.26217168 -50.03515625 66.1328125 C-55.68456489 71.76079512 -61.34027825 77.38238884 -67 83 C-71.83298806 78.97251947 -76.38110004 74.75620587 -80.80859375 70.2890625 C-81.42017838 69.67606293 -82.031763 69.06306335 -82.66188049 68.43148804 C-84.58947559 66.49835436 -86.51353928 64.56175013 -88.4375 62.625 C-89.75432404 61.30315301 -91.07137926 59.98153628 -92.38867188 58.66015625 C-95.59512373 55.44275701 -98.79841629 52.22224319 -102 49 C-100.25153574 45.22911855 -98.14284824 42.75957406 -95 40 C-92 40 -92 40 -90.45703125 41.50390625 C-89.64298828 42.52291016 -89.64298828 42.52291016 -88.8125 43.5625 C-85.82515958 47.13227786 -82.67777896 50.12220488 -79.1328125 53.125 C-75.23283168 56.55355457 -71.63222898 60.29209958 -68 64 C-63.43418837 60.18406367 -59.10153017 56.23510085 -54.92871094 51.99462891 C-54.36680054 51.42804565 -53.80489014 50.8614624 -53.22595215 50.27770996 C-52.01962368 49.06096682 -50.8144082 47.84311935 -49.61022186 46.62425613 C-47.70490187 44.69674612 -45.79549588 42.77337264 -43.88482666 40.85116577 C-38.45764756 35.3905291 -33.03484175 29.92560451 -27.62207031 24.45068359 C-24.3006458 21.09170687 -20.97202823 17.74000641 -17.63861847 14.39292526 C-16.37114408 13.11738421 -15.10645517 11.83906912 -13.84459686 10.55797195 C-12.08774243 8.77476853 -10.32192136 7.00093687 -8.55371094 5.22900391 C-8.03315125 4.69608734 -7.51259155 4.16317078 -6.97625732 3.61410522 C-3.34195478 0 -3.34195478 0 0 0 Z " fill="#F2F7FB" transform="translate(320,208)"/>
<path d="M0 0 C1.51815699 0.00015911 3.0363194 0.00585313 4.55444336 0.01586914 C5.35208603 0.01728409 6.1497287 0.01869904 6.97154236 0.02015686 C9.52916146 0.02577223 12.08669429 0.03832727 14.64428711 0.05102539 C16.37410356 0.05603841 18.10392137 0.06060166 19.83374023 0.06469727 C24.08312264 0.07574664 28.33244023 0.09302153 32.58178711 0.11352539 C32.58178711 4.07352539 32.58178711 8.03352539 32.58178711 12.11352539 C28.62178711 12.11352539 24.66178711 12.11352539 20.58178711 12.11352539 C20.58178711 18.05352539 20.58178711 23.99352539 20.58178711 30.11352539 C21.91854492 30.16250977 23.25530273 30.21149414 24.63256836 30.26196289 C26.38649549 30.33699721 28.14040072 30.41254475 29.89428711 30.48852539 C31.21589844 30.53493164 31.21589844 30.53493164 32.56420898 30.58227539 C33.41176758 30.62094727 34.25932617 30.65961914 35.13256836 30.69946289 C36.30299683 30.74659424 36.30299683 30.74659424 37.49707031 30.79467773 C39.58178711 31.11352539 39.58178711 31.11352539 42.58178711 33.11352539 C39.31061979 32.97464033 36.0399531 32.82622047 32.76928711 32.67602539 C31.84051758 32.63670898 30.91174805 32.59739258 29.95483398 32.55688477 C28.61582031 32.49404297 28.61582031 32.49404297 27.24975586 32.42993164 C26.42757568 32.39327393 25.60539551 32.35661621 24.75830078 32.31884766 C22.58178711 32.11352539 22.58178711 32.11352539 19.58178711 31.11352539 C19.58178711 24.51352539 19.58178711 17.91352539 19.58178711 11.11352539 C23.21178711 11.11352539 26.84178711 11.11352539 30.58178711 11.11352539 C30.58178711 8.14352539 30.58178711 5.17352539 30.58178711 2.11352539 C20.02178711 2.11352539 9.46178711 2.11352539 -1.41821289 2.11352539 C-1.41821289 5.08352539 -1.41821289 8.05352539 -1.41821289 11.11352539 C-0.70793945 11.10192383 0.00233398 11.09032227 0.73413086 11.07836914 C1.65323242 11.0693457 2.57233398 11.06032227 3.51928711 11.05102539 C4.43581055 11.03942383 5.35233398 11.02782227 6.29663086 11.01586914 C8.58178711 11.11352539 8.58178711 11.11352539 9.58178711 12.11352539 C9.68015921 13.44396164 9.71257303 14.77945883 9.71459961 16.11352539 C9.7165332 17.32008789 9.7165332 17.32008789 9.71850586 18.55102539 C9.71463867 19.39665039 9.71077148 20.24227539 9.70678711 21.11352539 C9.71258789 22.38196289 9.71258789 22.38196289 9.71850586 23.67602539 C9.7172168 24.48040039 9.71592773 25.28477539 9.71459961 26.11352539 C9.71347168 26.85602539 9.71234375 27.59852539 9.71118164 28.36352539 C9.58178711 30.11352539 9.58178711 30.11352539 8.58178711 31.11352539 C7.09539719 31.27007566 5.60229584 31.36419482 4.10913086 31.42993164 C3.21000977 31.47182617 2.31088867 31.5137207 1.38452148 31.55688477 C-0.03376953 31.61585938 -0.03376953 31.61585938 -1.48071289 31.67602539 C-2.43010742 31.71920898 -3.37950195 31.76239258 -4.35766602 31.80688477 C-6.71102642 31.91331815 -9.06449643 32.01533548 -11.41821289 32.11352539 C-11.41821289 31.78352539 -11.41821289 31.45352539 -11.41821289 31.11352539 C-9.37749774 30.77441545 -7.33558668 30.44249835 -5.29321289 30.11352539 C-4.15625977 29.92790039 -3.01930664 29.74227539 -1.84790039 29.55102539 C1.58178711 29.11352539 1.58178711 29.11352539 7.58178711 29.11352539 C7.58178711 23.83352539 7.58178711 18.55352539 7.58178711 13.11352539 C4.89022461 13.14446289 4.89022461 13.14446289 2.14428711 13.17602539 C0.29012589 13.19733759 -1.56533788 13.18579041 -3.41821289 13.11352539 C-4.41821289 12.11352539 -4.41821289 12.11352539 -4.55102539 9.64477539 C-4.54844727 8.64446289 -4.54586914 7.64415039 -4.54321289 6.61352539 C-4.54579102 5.61321289 -4.54836914 4.61290039 -4.55102539 3.58227539 C-4.3443209 -0.25999628 -3.97775332 0.1321088 0 0 Z " fill="#7AB1DB" transform="translate(240.418212890625,103.886474609375)"/>
<path d="M0 0 C2.97 0 5.94 0 9 0 C9 0.66 9 1.32 9 2 C6.36 2 3.72 2 1 2 C1 6.95 1 11.9 1 17 C-0.65 17.33 -2.3 17.66 -4 18 C-5 17 -5 17 -5.09765625 13.62109375 C-5.09098369 12.22652923 -5.07902532 10.83198257 -5.0625 9.4375 C-5.05798828 8.72658203 -5.05347656 8.01566406 -5.04882812 7.28320312 C-5.03700864 5.52209987 -5.01907263 3.76103964 -5 2 C-4.67 2 -4.34 2 -4 2 C-4 6.62 -4 11.24 -4 16 C-3.01 16 -2.02 16 -1 16 C-1.01160156 15.01257813 -1.02320313 14.02515625 -1.03515625 13.0078125 C-1.04417969 11.72648438 -1.05320313 10.44515625 -1.0625 9.125 C-1.07410156 7.84882813 -1.08570313 6.57265625 -1.09765625 5.2578125 C-1 2 -1 2 0 0 Z " fill="#BDD8EC" transform="translate(257,148)"/>
<path d="M0 0 C0.66 0.33 1.32 0.66 2 1 C-0.20223821 3.40149694 -2.41287441 5.79511065 -4.625 8.1875 C-5.24246094 8.86103516 -5.85992187 9.53457031 -6.49609375 10.22851562 C-10.1266805 14.14572764 -13.81284653 17.6824861 -18 21 C-18 16.81116298 -15.67400903 15.0691572 -12.9375 12.1875 C-12.43887451 11.65286133 -11.94024902 11.11822266 -11.42651367 10.56738281 C-7.83096005 6.75766304 -4.0942029 3.27536232 0 0 Z " fill="#BCD8EC" transform="translate(170,163)"/>
<path d="M0 0 C5.60461531 0.42089996 10.72086547 0.91613111 16 3 C16 3.66 16 4.32 16 5 C17.134375 5.061875 18.26875 5.12375 19.4375 5.1875 C24.64719648 5.80259833 28.61845986 8.25139496 33 11 C31 12 31 12 27.76171875 10.92578125 C26.40109997 10.39449523 25.04317445 9.85627853 23.6875 9.3125 C17.3477011 6.836398 11.02918186 4.71296956 4.4765625 2.859375 C2 2 2 2 0 0 Z " fill="#7EB2DC" transform="translate(283,137)"/>
<path d="M0 0 C0.66 0.33 1.32 0.66 2 1 C-2.07789615 5.85728926 -6.35900185 10.48787426 -10.8125 15 C-11.53240112 15.73923706 -11.53240112 15.73923706 -12.2668457 16.4934082 C-13.47235051 17.70233107 -14.73236351 18.85639427 -16 20 C-16.66 20 -17.32 20 -18 20 C-16.44200307 16.23121414 -14.090634 13.88728855 -11.1875 11.0625 C-10.33542969 10.22847656 -9.48335937 9.39445313 -8.60546875 8.53515625 C-7.74566406 7.69855469 -6.88585937 6.86195313 -6 6 C-4.33097429 4.33569572 -2.66376054 2.66956773 -1 1 C-0.67 0.67 -0.34 0.34 0 0 Z " fill="#348BCB" transform="translate(179,175)"/>
<path d="M0 0 C1.65 0 3.3 0 5 0 C6 1 6 1 6.09765625 4.37890625 C6.09098369 5.77347077 6.07902532 7.16801743 6.0625 8.5625 C6.05798828 9.27341797 6.05347656 9.98433594 6.04882812 10.71679688 C6.03700864 12.47790013 6.01907263 14.23896036 6 16 C5.34 16 4.68 16 4 16 C4 11.38 4 6.76 4 2 C3.01 2 2.02 2 1 2 C1 6.62 1 11.24 1 16 C0.67 16 0.34 16 0 16 C0 10.72 0 5.44 0 0 Z " fill="#B6CBE3" transform="translate(252,373)"/>
<path d="M0 0 C2.84574968 1.27568089 5.18089981 2.41496289 7 5 C7 8.64108598 5.98534777 10.01821629 3.6875 12.875 C2.800625 13.57625 1.91375 14.2775 1 15 C-0.32 14.67 -1.64 14.34 -3 14 C-0.36 12.02 2.28 10.04 5 8 C3.47524303 4.95048605 2.07114674 2.63600494 0 0 Z " fill="#4D99D0" transform="translate(199,116)"/>
<path d="M0 0 C2.0625 0.4375 2.0625 0.4375 4 1 C4.33 2.32 4.66 3.64 5 5 C4.34 5 3.68 5 3 5 C3 4.34 3 3.68 3 3 C2.34 3 1.68 3 1 3 C1 4.98 1 6.96 1 9 C-0.76462683 5.91190305 -1 4.76687864 -1 1 C-0.67 0.67 -0.34 0.34 0 0 Z " fill="#B5CBE4" transform="translate(311,366)"/>
<path d="M0 0 C0.66 0.33 1.32 0.66 2 1 C1.50628906 1.45890625 1.01257813 1.9178125 0.50390625 2.390625 C-0.13675781 3.00421875 -0.77742188 3.6178125 -1.4375 4.25 C-2.07558594 4.85328125 -2.71367187 5.4565625 -3.37109375 6.078125 C-5.08516306 8.10048016 -5.59358878 9.41270605 -6 12 C-6.66 11.34 -7.32 10.68 -8 10 C-8 7 -8 7 -6.25 5.17578125 C-5.5075 4.56089844 -4.765 3.94601563 -4 3.3125 C-3.2575 2.68988281 -2.515 2.06726563 -1.75 1.42578125 C-1.1725 0.95527344 -0.595 0.48476562 0 0 Z " fill="#DBE9F4" transform="translate(313,114)"/>
<path d="M0 0 C0.625 1.8125 0.625 1.8125 1 4 C0.01 5.485 0.01 5.485 -1 7 C-1.33 8.19625 -1.66 9.3925 -2 10.625 C-2.33 11.73875 -2.66 12.8525 -3 14 C-3.99 14.495 -3.99 14.495 -5 15 C-4.54901762 13.06077578 -4.08894441 11.12366406 -3.625 9.1875 C-3.24214844 7.56908203 -3.24214844 7.56908203 -2.8515625 5.91796875 C-2 3 -2 3 0 0 Z " fill="#B5D2E9" transform="translate(131,215)"/>
<path d="M0 0 C0.66 0 1.32 0 2 0 C1.67 1.32 1.34 2.64 1 4 C4.465 3.505 4.465 3.505 8 3 C5.08235 4.9451 3.37462715 5.45276317 0 6 C-0.38218767 4.34385343 -0.71395102 2.67542976 -1 1 C-0.67 0.67 -0.34 0.34 0 0 Z " fill="#B0CDE6" transform="translate(353,209)"/>
<path d="M0 0 C0.66 0.33 1.32 0.66 2 1 C1.04882866 2.1725131 0.08882991 3.33787015 -0.875 4.5 C-1.40867187 5.1496875 -1.94234375 5.799375 -2.4921875 6.46875 C-2.98976563 6.9740625 -3.48734375 7.479375 -4 8 C-4.66 8 -5.32 8 -6 8 C-6 5 -6 5 -4.6875 3.61328125 C-3.125 2.40885417 -1.5625 1.20442708 0 0 Z " fill="#447BBF" transform="translate(345,368)"/>
</svg>
